<svg width="1000" height="1000" viewBox="0 0 1000 1000" fill="none" xmlns="http://www.w3.org/2000/svg">
<rect width="1000" height="1000" fill="white" fill-opacity="1"/>
<path d="M584.205 346L504.531 208C501.452 202.667 493.754 202.667 490.674 208L411 346" stroke="black" stroke-width="13" stroke-linecap="round" stroke-linejoin="round"/>
<path d="M472.205 541L392.531 403C389.452 397.667 381.754 397.667 378.674 403L299 541" stroke="black" stroke-width="13" stroke-linecap="round" stroke-linejoin="round"/>
<path d="M497.603 524L577.277 386C580.356 380.667 576.507 374 570.349 374L411 374" stroke="black" stroke-width="13" stroke-linecap="round" stroke-linejoin="round"/>
<path d="M520 541L679.349 541C685.507 541 689.356 534.333 686.277 529L606.603 391" stroke="black" stroke-width="13" stroke-linecap="round" stroke-linejoin="round"/>
<path d="M277.904 579L198.229 717C195.15 722.333 198.999 729 205.158 729L364.506 729" stroke="black" stroke-width="13" stroke-linecap="round" stroke-linejoin="round"/>
<path d="M472.506 568L313.158 568C306.999 568 303.15 574.667 306.229 580L385.904 718" stroke="black" stroke-width="13" stroke-linecap="round" stroke-linejoin="round"/>
<path d="M493.904 579L414.229 717C411.15 722.333 414.999 729 421.158 729L580.506 729" stroke="black" stroke-width="13" stroke-linecap="round" stroke-linejoin="round"/>
<path d="M519 570L598.674 708C601.754 713.333 609.452 713.333 612.531 708L692.205 570" stroke="black" stroke-width="13" stroke-linecap="round" stroke-linejoin="round"/>
<path d="M630 729L789.349 729C795.507 729 799.356 722.333 796.277 717L716.603 579" stroke="black" stroke-width="13" stroke-linecap="round" stroke-linejoin="round"/>
</svg>
